# xmcd CD database file
#
# Track frame offsets:
#	150
#	22190
#	44076
#	63056
#	84828
#	108859
#	121416
#	142730
#	164153
#	186275
#	210724
#	233827
#	246572
#	267504
#
# Disc length: 3825 seconds
#
# Revision: 0
# Processed by: cddbd v1.5.1PL2 Copyright (c) Steve Scherf et al.
# Submitted via: CDex 1.51
#
DISCID=cb0eef0e
DTITLE=Oscar Castro-Neves - All One
DYEAR=2006
DGENRE=Jazz
TTITLE0=Double Rainbow
TTITLE1=All One
TTITLE2=Kurski Funk
TTITLE3=Morrer De Amor (Featuring Luciana Souza)
TTITLE4=Holding With An Open Hand
TTITLE5=Nao Me Diga Adeus (Featuring Luciana Souza)
TTITLE6=Naima
TTITLE7=Historia De Un Amor
TTITLE8='Round Midninght
TTITLE9=The Very Thought Of You
TTITLE10=More Than Yesterday
TTITLE11=There Will Never Be Another You
TTITLE12=Prelude Op, 28, No. 20
TTITLE13=One Bad Habit
EXTD=YEAR: 2006
EXTT0=
EXTT1=
EXTT2=
EXTT3=
EXTT4=
EXTT5=
EXTT6=
EXTT7=
EXTT8=
EXTT9=
EXTT10=
EXTT11=
EXTT12=
EXTT13=
PLAYORDER=
